<?xml version="1.0" standalone="no"?><!DOCTYPE svg PUBLIC "-//W3C//DTD SVG 1.1//EN" "http://www.w3.org/Graphics/SVG/1.1/DTD/svg11.dtd"><svg t="1495502160143" class="icon" style="" viewBox="0 0 1024 1024" version="1.1" xmlns="http://www.w3.org/2000/svg" p-id="1536" xmlns:xlink="http://www.w3.org/1999/xlink" width="128" height="128"><defs><style type="text/css"></style></defs><path d="M980.098016 514.702159c0-25.499892 0-51.299783-0.1-76.799675 0-16.999928-13.799942-30.999869-30.799869-30.999869 0 0 0 0 0 0-16.999928 0-30.69987 13.999941-30.69987 30.999869 0 25.499892 0 51.099783 0.1 76.699675 0.1 102.699565 0.199999 208.899115-0.1 313.198673-0.1 41.499824-14.899937 74.799683-45.099809 101.49957-24.699895 21.899907-53.199775 32.99986-84.699641 32.99986-151.499358 0.199999-351.49851 0.299999-554.997648-0.1-30.399871 0-57.099758-10.199957-81.399655-31.099868-31.499866-27.099885-46.899801-60.899742-46.899801-103.499561 0-44.89981 0-89.799619 0-134.699429 0-133.899432 0-272.398845-0.1-408.598268-0.1-41.599824 14.799937-75.199681 45.399808-102.499566 22.199906-19.899916 48.399795-30.59987 78.099669-31.999864 32.599862-1.499994 66.199719-1.299994 98.699582-1.099995 14.299939 0.1 28.999877 0.199999 43.599815 0.199999 71.099699-0.199999 143.299393-0.1 213.199096 0l44.399812 0.1c0 0 0 0 0 0 16.999928 0 30.69987-13.799942 30.799869-30.799869 0-16.999928-13.699942-30.799869-30.69987-30.799869l-44.399812 0c-69.899704-0.1-142.199397-0.1-213.399096 0-14.299939 0-28.899878-0.1-42.999818-0.199999-33.299859-0.199999-67.699713-0.499998-101.999568 1.099995-44.199813 2.099991-83.299647 18.099923-116.199508 47.599798-43.799814 39.099834-65.99972 88.999623-65.899721 148.399371 0.1 136.199423 0.1 274.598836 0.1 408.598268 0 44.89981 0 89.799619 0 134.699429 0 60.699743 22.999903 111.199529 68.299711 150.199363 35.49985 30.399871 76.399676 45.899805 121.399485 45.899805 95.299596 0.199999 189.799196 0.299999 278.998818 0.299999 101.199571 0 195.499171-0.1 276.09883-0.199999 46.899801 0 89.099622-16.299931 125.399469-48.399795 42.899818-37.899839 65.699722-88.899623 65.899721-147.399375C980.298015 723.601273 980.198016 617.401723 980.098016 514.702159z" p-id="1537" fill="#F0AD4E"></path><path d="M533.599908 504.202203l-86.299634-168.999284c-1.599993-3.099987-4.299982-5.299978-7.599968-6.199974-3.299986-0.899996-6.799971-0.399998-9.799958 1.399994l-202.399142 123.999474c-3.999983 2.499989-6.299973 6.99997-5.799975 11.69995 0.499998 4.69998 3.599985 8.699963 8.099966 10.299956 87.099631 31.399867 207.799119 132.09944 307.398697 256.398913 2.29999 2.899988 5.899975 4.599981 9.599959 4.599981 0.399998 0 0.699997 0 1.099995-0.1 4.099983-0.399998 7.799967-2.799988 9.699959-6.399973 37.399841-69.299706 113.799518-173.599264 190.099194-259.5989 89.099622-100.499574 166.699293-163.999305 212.799098-174.399261 3.599985-0.799997 6.599972-3.199986 8.299965-6.399973 1.699993-3.299986 1.799992-7.09997 0.299999-10.499955C936.898199 206.003467 944.098169 141.903739 951.798136 74.004026c2.199991-19.699917 4.499981-39.99983 5.899975-60.899742 0.299999-4.399981-1.799992-8.699963-5.499977-11.099953-3.699984-2.39999-8.399964-2.699989-12.399947-0.599997-58.699751 30.399871-117.099504 77.099673-173.699264 138.899411-44.999809 49.099792-88.999623 107.899543-130.799446 174.69926C584.999691 395.102665 549.999839 468.002356 533.599908 504.202203z" p-id="1538" fill="#F0AD4E"></path></svg>