<?xml version="1.0" standalone="no"?><!DOCTYPE svg PUBLIC "-//W3C//DTD SVG 1.1//EN" "http://www.w3.org/Graphics/SVG/1.1/DTD/svg11.dtd"><svg t="1492766455781" class="icon" style="" viewBox="0 0 1024 1024" version="1.1" xmlns="http://www.w3.org/2000/svg" p-id="1174" xmlns:xlink="http://www.w3.org/1999/xlink" width="128" height="128"><defs><style type="text/css"></style></defs><path d="M921.6 409.6 614.4 409.6 614.4 102.4C614.4 45.846 568.553 0 512 0S409.6 45.846 409.6 102.4l0 307.2L102.4 409.6C45.846 409.6 0 455.447 0 512s45.846 102.4 102.4 102.4l307.2 0L409.6 921.6c0 56.555 45.848 102.4 102.4 102.4s102.4-45.847 102.4-102.4L614.4 614.4 921.6 614.4c56.555 0 102.4-45.849 102.4-102.4C1024 455.447 978.153 409.6 921.6 409.6z" p-id="1175" fill="#FFFFFF"></path></svg>