<?xml version="1.0" standalone="no"?><!DOCTYPE svg PUBLIC "-//W3C//DTD SVG 1.1//EN" "http://www.w3.org/Graphics/SVG/1.1/DTD/svg11.dtd"><svg t="1492054268704" class="icon" style="" viewBox="0 0 1025 1024" version="1.1" xmlns="http://www.w3.org/2000/svg" p-id="1003" xmlns:xlink="http://www.w3.org/1999/xlink" width="128.125" height="128"><defs><style type="text/css"></style></defs><path d="M255.6928 354.0992c0-14.6432-11.912533-26.555733-26.5216-26.555733-14.6432 0-26.589867 11.912533-26.589867 26.555733 0 26.248533 10.717867 50.141867 27.989333 67.345067 17.237333 17.237333 41.096533 27.8528 67.4816 27.8528 26.3168 0 50.210133-10.6496 67.4816-27.8528 17.237333-17.2032 27.921067-41.096533 27.921067-67.345067 0-14.6432-11.8784-26.555733-26.5216-26.555733-14.677333 0-26.589867 11.912533-26.589867 26.555733 0 11.605333-4.7104 22.254933-12.356267 29.9008-7.645867 7.611733-18.295467 12.3904-29.934933 12.3904-11.707733 0-22.289067-4.778667-29.934933-12.3904C260.471467 376.354133 255.6928 365.704533 255.6928 354.0992L255.6928 354.0992 255.6928 354.0992z" p-id="1004" fill="#F0AD4E"></path><path d="M683.690667 354.0992c0-14.6432-11.946667-26.555733-26.5216-26.555733-14.677333 0-26.5216 11.912533-26.5216 26.555733 0 26.248533 10.683733 50.141867 27.921067 67.345067 17.271467 17.237333 41.130667 27.8528 67.549867 27.8528 26.282667 0 50.141867-10.6496 67.413333-27.8528 17.339733-17.2032 27.989333-41.096533 27.989333-67.345067 0-14.6432-11.8784-26.555733-26.5216-26.555733s-26.589867 11.912533-26.589867 26.555733c0 11.605333-4.676267 22.254933-12.3904 29.9008-7.68 7.611733-18.261333 12.3904-29.866667 12.3904-11.741867 0-22.3232-4.778667-29.934933-12.3904C688.401067 376.354133 683.690667 365.704533 683.690667 354.0992L683.690667 354.0992 683.690667 354.0992z" p-id="1005" fill="#F0AD4E"></path><path d="M279.620267 748.066133c0 14.6432 11.946667 26.453333 26.589867 26.453333 14.609067 0 26.5216-11.844267 26.5216-26.453333 0-49.527467 20.036267-94.276267 52.462933-126.702933l0.068267 0.068267c32.392533-32.324267 77.312-52.4288 126.805333-52.4288 49.493333 0 94.344533 20.104533 126.737067 52.4288l1.3312 1.262933c31.744 32.290133 51.2 76.526933 51.2 125.371733 0 14.6432 11.946667 26.453333 26.5216 26.453333 14.677333 0 26.5216-11.844267 26.5216-26.453333 0-63.249067-25.326933-120.593067-66.525867-162.474667-0.477867-0.580267-0.989867-1.058133-1.536-1.6384-41.984-41.949867-100.215467-67.8912-164.283733-67.8912-64.170667 0-122.333867 25.941333-164.317867 67.8912l0 0.1024 0 0.068267C305.629867 626.039467 279.620267 684.066133 279.620267 748.066133L279.620267 748.066133 279.620267 748.066133z" p-id="1006" fill="#F0AD4E"></path><path d="M925.866667 812.407467c1.570133-2.1504 3.2768-4.1984 4.8128-6.417067 36.5568-51.848533 63.6928-111.377067 79.086933-176.5376 0.068267-0.375467 0.170667-0.7168 0.273067-1.058133 1.399467-6.0416 3.2768-11.844267 4.471467-17.954133 10.069333-51.473067 12.014933-102.8096 6.656-152.746667-5.051733-47.104-16.657067-92.672-33.860267-135.611733 0 0-0.750933 0.034133-1.092267 0.034133-4.1984-10.513067-8.3968-20.992-13.243733-31.197867-13.4144-28.16-29.149867-54.545067-46.7968-78.9504-8.6016-11.810133-25.122133-14.404267-36.864-5.870933-11.8784 8.6016-14.5408 25.1904-5.9392 37.000533 16.008533 22.050133 30.071467 45.6704 41.949867 70.485333 11.537067 24.132267 21.1968 50.0736 28.672 77.5168 20.855467 76.1856 21.230933 153.156267 4.5056 225.041067-0.136533 0.477867-0.238933 0.9216-0.375467 1.399467-10.1376 42.871467-26.3168 83.933867-47.9232 121.890133-6.997333 12.322133-14.677333 24.302933-22.801067 35.908267-1.501867 2.1504-3.1744 4.1984-4.744533 6.3488-6.587733 9.147733-13.5168 18.1248-20.7872 26.760533-4.573867 5.358933-9.4208 10.4448-14.2336 15.5648-4.642133 5.0176-9.250133 10.1376-14.097067 14.9504-8.157867 7.9872-16.6912 15.598933-25.429333 22.971733-1.9456 1.6384-3.754667 3.3792-5.7344 4.983467-10.990933 8.977067-22.357333 17.476267-34.167467 25.361067-36.2496 24.302933-75.946667 43.383467-117.896533 56.661333-0.580267 0.170667-1.092267 0.375467-1.672533 0.546133-13.653333 4.266667-27.579733 7.850667-41.6768 10.820267-0.477867 0.1024-0.887467 0.2048-1.365333 0.3072-58.197333 12.0832-119.7056 13.0048-181.725867 0.853333-30.958933-6.075733-60.552533-15.121067-88.576-26.794667-0.170667-0.068267-0.341333-0.136533-0.546133-0.2048-12.356267-5.154133-24.2688-11.025067-36.010667-17.169067-2.1504-1.160533-4.369067-2.1504-6.519467-3.345067-9.762133-5.290667-19.080533-11.195733-28.3648-17.169067-3.549867-2.2528-7.202133-4.4032-10.717867-6.792533-7.816533-5.3248-15.223467-11.1616-22.664533-16.930133-4.4032-3.4816-8.977067-6.724267-13.277867-10.376533-6.212267-5.188267-12.049067-10.820267-17.92-16.349867-5.0176-4.744533-10.171733-9.284267-14.984533-14.2336-4.7104-4.846933-9.079467-9.966933-13.550933-14.984533-5.563733-6.212267-11.1616-12.322133-16.384-18.875733-3.208533-3.959467-6.109867-8.192-9.181867-12.288-6.109867-8.157867-12.1856-16.384-17.749333-25.019733-1.604267-2.423467-3.003733-4.983467-4.573867-7.509333-6.7584-10.922667-13.312-22.050133-19.182933-33.655467-0.136533-0.273067-0.273067-0.546133-0.4096-0.785067-13.6192-27.067733-24.814933-55.842133-33.109333-86.152533-16.622933-60.8256-20.206933-122.1632-12.4928-180.974933 0.1024-0.7168 0.2048-1.4336 0.3072-2.1504 1.911467-14.0288 4.437333-27.886933 7.611733-41.540267 0.2048-0.887467 0.443733-1.774933 0.682667-2.6624 10.1376-42.5984 26.248533-83.387733 47.7184-121.1392C121.002667 272.042667 128.682667 260.027733 136.840533 248.354133c1.365333-1.911467 2.833067-3.720533 4.1984-5.632 6.792533-9.386667 13.858133-18.568533 21.333333-27.4432 4.4032-5.154133 9.079467-10.0352 13.687467-14.984533C180.906667 195.072 185.6512 189.815467 190.702933 184.832c8.021333-7.816533 16.349867-15.2576 24.917333-22.493867 2.116267-1.809067 4.096-3.6864 6.2464-5.461333 10.9568-8.9088 22.254933-17.373867 33.9968-25.224533C255.931733 131.618133 255.965867 131.584 256 131.549867c36.181333-24.234667 75.776-43.3152 117.6576-56.558933 0.682667-0.2048 1.3312-0.443733 2.013867-0.682667 70.417067-21.879467 147.1488-27.136 224.5632-11.9808 27.921067 5.495467 54.4768 13.175467 79.394133 22.903467 25.6 10.0352 50.141867 22.357333 73.386667 36.693333 12.3904 7.714133 28.740267 3.822933 36.4544-8.567467 7.611733-12.424533 3.857067-28.706133-8.6016-36.386133-25.6-15.837867-53.077333-29.5936-82.1248-40.925867-10.5472-4.096-21.2992-7.4752-32.085333-10.888533 0-0.341333-0.034133-1.092267-0.034133-1.092267-44.066133-14.0288-90.385067-22.2208-137.728-23.8592-50.176-1.6384-101.239467 4.027733-151.8592 17.851733-5.973333 1.6384-11.605333 3.925333-17.5104 5.7344-0.4096 0.136533-0.8192 0.273067-1.2288 0.4096-63.829333 20.104533-121.1392 51.473067-170.120533 91.716267-2.116267 1.7408-4.096 3.618133-6.178133 5.358933C172.202667 129.6384 162.577067 138.069333 153.4976 147.0464c-5.597867 5.461333-10.786133 11.332267-16.145067 17.066667-5.154133 5.597867-10.478933 11.025067-15.36 16.827733C113.4592 190.941867 105.540267 201.386667 97.792 212.0704 96.392533 213.981867 94.890667 215.790933 93.559467 217.7024c-36.625067 51.882667-63.761067 111.377067-79.1552 176.5376-0.1024 0.443733-0.2048 0.887467-0.341333 1.365333-1.399467 5.9392-3.242667 11.707733-4.4032 17.749333-1.9456 9.966933-2.935467 19.899733-4.3008 29.832533-0.068267 0.443733-0.136533 0.887467-0.170667 1.3312-14.097067 105.540267 5.188267 208.5888 50.5856 297.949867 0.273067 0.546133 0.512 1.092267 0.785067 1.6384 6.621867 12.9024 13.824 25.429333 21.504 37.717333 1.604267 2.56 3.072 5.2224 4.7104 7.7824 1.570133 2.389333 2.8672 4.983467 4.471467 7.3728 5.0176 7.4752 10.717867 14.472533 16.145067 21.674667 3.140267 4.1984 6.144 8.533333 9.386667 12.5952C118.852267 838.8608 125.405867 846.097067 131.959467 853.333333c4.7104 5.256533 9.284267 10.6496 14.199467 15.6672 5.700267 5.8368 11.810133 11.298133 17.783467 16.861867 6.280533 5.8368 12.424533 11.776 18.978133 17.271467 5.085867 4.3008 10.513067 8.226133 15.803733 12.322133 8.021333 6.2464 15.9744 12.458667 24.337067 18.193067 4.061867 2.7648 8.328533 5.256533 12.4928 7.918933 7.7824 5.0176 15.36 10.308267 23.415467 14.916267 2.56 1.467733 5.290667 2.594133 7.850667 3.9936 2.423467 1.3312 4.949333 2.491733 7.3728 3.754667 13.038933 6.894933 26.3168 13.312 39.936 19.0464 0.341333 0.170667 0.682667 0.273067 1.024 0.4096 92.672 38.946133 197.188267 50.688 301.738667 28.7744 0.068267-0.034133 0.136533-0.034133 0.2048-0.034133 10.0352-2.1504 20.0704-3.8912 30.1056-6.621867 6.109867-1.672533 11.810133-3.959467 17.783467-5.8368 0.1024-0.034133 0.170667-0.068267 0.238933-0.068267 64.136533-20.138667 121.685333-51.643733 170.939733-92.0576 1.911467-1.570133 3.652267-3.2768 5.5296-4.846933 10.001067-8.465067 19.797333-17.1008 29.0816-26.248533 5.461333-5.3248 10.513067-11.025067 15.701333-16.5888 5.3248-5.768533 10.786133-11.3664 15.837867-17.339733C910.506667 833.092267 918.289067 822.852267 925.866667 812.407467z" p-id="1007" fill="#F0AD4E"></path></svg>