<?xml version="1.0" standalone="no"?><!DOCTYPE svg PUBLIC "-//W3C//DTD SVG 1.1//EN" "http://www.w3.org/Graphics/SVG/1.1/DTD/svg11.dtd"><svg t="1497598474933" class="icon" style="" viewBox="0 0 1024 1024" version="1.1" xmlns="http://www.w3.org/2000/svg" p-id="4765" xmlns:xlink="http://www.w3.org/1999/xlink" width="128" height="128"><defs><style type="text/css"></style></defs><path d="M671.551 397.692c12.485 12.541 32.787 12.541 45.329 0l135.931-135.931c12.541-12.541 12.541-32.787 0-45.329l-45.329-45.329c-12.541-12.541-32.787-12.541-45.329 0l-135.931 135.931c-12.485 12.485-12.485 32.787 0 45.329l45.329 45.329zM929.86 447.803h-192.283c-17.715 0-32.056 14.341-32.056 32.056v64.113c0 17.715 14.341 32.056 32.056 32.056h192.283c17.715 0 32.056-14.341 32.056-32.056v-64.113c0-17.715-14.341-32.056-32.056-32.056zM716.824 626.139c-12.485-12.485-32.787-12.485-45.329 0l-45.329 45.329c-12.485 12.541-12.485 32.787 0 45.329l135.931 135.931c12.541 12.485 32.787 12.485 45.329 0l45.329-45.329c12.541-12.485 12.541-32.787 0-45.329l-135.931-135.931zM544.056 705.493h-64.113c-17.715 0-32.056 14.341-32.056 32.056v192.283c0 17.715 14.341 32.056 32.056 32.056h64.113c17.715 0 32.056-14.341 32.056-32.056v-192.283c0-17.715-14.397-32.056-32.056-32.056zM352.449 626.139c-12.485-12.485-32.787-12.485-45.329 0l-135.931 135.931c-12.485 12.541-12.485 32.787 0 45.329l45.329 45.329c12.541 12.485 32.787 12.485 45.329 0l135.931-135.931c12.541-12.485 12.541-32.787 0-45.329l-45.329-45.329zM318.423 543.972v-64.113c0-17.715-14.341-32.056-32.056-32.056h-192.227c-17.715 0-32.056 14.341-32.056 32.056v64.113c0 17.715 14.341 32.056 32.056 32.056h192.283c17.659-0.056 32-14.397 32-32.056zM261.847 171.104c-12.541-12.541-32.787-12.541-45.329 0l-45.329 45.329c-12.485 12.485-12.485 32.787 0 45.329l135.931 135.931c12.485 12.541 32.787 12.541 45.329 0l45.329-45.329c12.541-12.485 12.541-32.787 0-45.329l-135.931-135.931zM544.056 62h-64.113c-17.659 0-32.056 14.341-32.056 32.056v192.283c0 17.715 14.341 32.056 32.056 32.056h64.113c17.715 0 32.056-14.341 32.056-32.056v-192.283c0-17.715-14.397-32.056-32.056-32.056z" p-id="4766" fill="#FFFFFF"></path></svg>