<?xml version="1.0" standalone="no"?><!DOCTYPE svg PUBLIC "-//W3C//DTD SVG 1.1//EN" "http://www.w3.org/Graphics/SVG/1.1/DTD/svg11.dtd"><svg t="1492050608589" class="icon" style="" viewBox="0 0 1024 1024" version="1.1" xmlns="http://www.w3.org/2000/svg" p-id="6256" xmlns:xlink="http://www.w3.org/1999/xlink" width="128" height="128"><defs><style type="text/css"></style></defs><path d="M409.5 949.1c-5.4 0-10.8-0.7-16.2-2.2C197.5 893.6 60.8 714.7 60.8 512S197.5 130.4 393.3 77.1c32.6-9 66.6 10.4 75.5 43.2s-10.4 66.6-43.2 75.5C283.3 234.6 183.9 364.6 183.9 512c0 147.4 99.4 277.4 241.8 316.2 32.8 8.9 52.1 42.7 43.2 75.5-7.5 27.4-32.3 45.4-59.4 45.4zM614.5 949.1c-27.1 0-51.9-18-59.3-45.3-8.9-32.8 10.4-66.6 43.2-75.5C740.7 789.4 840.1 659.4 840.1 512s-99.4-277.4-241.8-316.2c-32.8-8.9-52.1-42.8-43.2-75.5s42.9-52.2 75.5-43.2C826.5 130.4 963.2 309.3 963.2 512S826.5 893.6 630.7 946.9c-5.4 1.5-10.8 2.2-16.2 2.2z" p-id="6257" fill="#F0AD4E"></path></svg>