<?xml version="1.0" standalone="no"?><!DOCTYPE svg PUBLIC "-//W3C//DTD SVG 1.1//EN" "http://www.w3.org/Graphics/SVG/1.1/DTD/svg11.dtd"><svg t="1494206360800" class="icon" style="" viewBox="0 0 1024 1024" version="1.1" xmlns="http://www.w3.org/2000/svg" p-id="996" xmlns:xlink="http://www.w3.org/1999/xlink" width="128" height="128"><defs><style type="text/css"></style></defs><path d="M511.277056 287.362048l49.173504 116.752384 23.1424 54.985728 59.409408 5.518336 128.492544 11.93472-89.040896 79.268864-43.523072 38.771712 12.481536 56.92928c9.115648 41.639936 17.125376 79.681536 23.93088 112.401408l-112.630784-65.024-50.123776-28.926976-49.941504 29.243392c-44.763136 26.179584-79.889408 46.42816-109.76256 63.224832l26.386432-107.684864 14.584832-59.53024-46.58688-39.841792c-33.886208-28.949504-64.319488-54.960128-91.689984-78.101504l121.516032-10.89024 58.947584-5.2992 23.518208-54.304768L511.277056 287.362048M512.941056 95.401984c-11.327488 0-20.28544 3.3536-26.763264 10.208256-6.598656 6.710272-11.70432 14.925824-15.1808 24.259584L368.19968 367.215616l-275.92192 24.769536c-6.477824 1.23904-12.445696 4.108288-17.794048 8.823808-5.359616 4.740096-8.725504 11.205632-9.843712 19.54304-1.240064 8.215552 0.75264 16.31232 5.736448 24.28416 5.10464 7.949312 11.194368 15.168512 18.280448 21.78048l9.844736 8.338432 22.776832 19.544064c9.33376 7.948288 19.664896 16.796672 31.356928 26.496l35.222528 29.632512c28.002304 23.626752 59.482112 50.511872 94.703616 80.62976l-30.360576 123.97056c-4.22912 15.922176-8.215552 31.478784-12.068864 46.91456-3.852288 15.31392-7.353344 29.364224-10.331136 42.077184-2.989056 12.689408-5.603328 23.50592-7.960576 32.718848l-4.484096 17.306624c-1.252352 5.226496-0.61952 10.452992 1.737728 15.435776 2.369536 4.982784 6.100992 9.33376 11.205632 12.811264 4.98176 3.620864 10.694656 5.736448 16.917504 6.731776 1.386496 0.19456 2.758656 0.268288 4.13184 0.268288 4.789248 0 9.517056-1.166336 14.17216-3.3792 2.99008-1.263616 8.836096-4.22912 17.429504-8.848384 8.701952-4.714496 18.911232-10.694656 30.859264-17.793024 11.826176-7.098368 25.147392-14.682112 39.707648-23.01952 14.560256-8.215552 29.364224-16.553984 44.168192-24.769536 34.614272-19.422208 72.936448-41.567232 115.25632-66.336768l233.104384 134.545408 12.955648 4.8384c5.590016 2.113536 9.942016 3.110912 12.932096 3.110912 8.969216 0 16.929792-1.992704 24.150016-5.712896 7.08608-3.863552 9.832448-11.692032 7.959552-23.530496-0.61952-2.358272-1.737728-8.093696-3.47648-17.306624l-6.7328-33.083392c-2.735104-13.077504-5.59104-27.516928-8.459264-43.439104-2.99008-15.945728-6.34368-31.867904-9.833472-47.79008-7.83872-37.84704-16.674816-80.047104-26.872832-126.572544l184.937472-164.662272c7.716864-8.97024 14.061568-16.433152 19.167232-22.656 5.103616-6.221824 7.596032-13.442048 7.596032-21.6576 0-8.823808-2.369536-15.31392-7.098368-19.544064-4.861952-4.108288-13.19936-7.583744-25.013248-10.573824l-276.042752-25.64608-99.954688-237.343744c-1.240064-2.358272-2.85696-5.226496-4.970496-8.823808-2.11456-3.47648-4.605952-7.098368-7.596032-10.573824-2.99008-3.621888-6.710272-6.7328-11.072512-9.33376C524.135424 96.761856 518.909952 95.401984 512.941056 95.401984" p-id="997" fill="#F0AD4E"></path></svg>