<?xml version="1.0" standalone="no"?><!DOCTYPE svg PUBLIC "-//W3C//DTD SVG 1.1//EN" "http://www.w3.org/Graphics/SVG/1.1/DTD/svg11.dtd"><svg t="1495542355038" class="icon" style="" viewBox="0 0 1024 1024" version="1.1" xmlns="http://www.w3.org/2000/svg" p-id="2150" xmlns:xlink="http://www.w3.org/1999/xlink" width="128" height="128"><defs><style type="text/css"></style></defs><path d="M862.326154 464.580923l0-0.590769c0-26.387692-21.582769-47.891692-47.931077-47.891692-26.427077 0-47.419077 21.504-47.419077 47.891692 0 141.272615-114.254769 256-254.976 256s-254.976-114.727385-254.976-256c0-26.387692-20.992-47.891692-47.419077-47.891692-26.348308 0-47.931077 21.504-47.931077 47.891692l0 0.590769c0 177.860923 131.465846 324.450462 302.355692 347.608615l0 115.908923L305.033846 928.098462c-26.427077 0-48.009846 21.504-48.009846 47.891692C257.024 1002.417231 278.606769 1024 305.033846 1024l413.932308 0c26.427077 0 48.009846-21.582769 48.009846-48.009846 0-26.387692-21.582769-47.891692-48.009846-47.891692l-158.995692 0 0-115.908923C730.860308 789.031385 862.326154 642.441846 862.326154 464.580923zM512 639.724308c105.629538 0 191.291077-85.740308 191.291077-191.842462l0-256C703.291077 86.212923 617.629538 0 512 0S320.708923 86.212923 320.708923 191.881846l0 256C320.708923 553.984 406.370462 639.724308 512 639.724308z" p-id="2151" fill="#FFFFFF"></path></svg>